<svg width="24" height="25" viewBox="0 0 24 25" fill="none" xmlns="http://www.w3.org/2000/svg">
<g opacity="0.8" clip-path="url(#clip0_201_1928)">
<path d="M1.48176 13.5078C1.48176 12.8295 1.47446 12.1512 1.48176 11.473C1.50159 9.96094 2.05256 9.1898 3.4905 8.75988C3.84424 8.65553 3.78998 8.42283 3.80354 8.20265C3.91833 6.23044 4.67487 4.53997 5.99489 3.08951C8.13406 0.739552 11.6287 -0.116116 14.7185 0.958687C17.7363 2.00845 19.9454 4.84572 20.1343 7.98038C20.1656 8.49065 20.3127 8.71083 20.8167 8.86423C21.7694 9.14597 22.3528 9.84929 22.4248 10.8406C22.5547 12.6268 22.5547 14.4201 22.4248 16.2063C22.3434 17.3145 21.6484 18.0063 20.5882 18.286C20.2699 18.3694 20.1531 18.5061 20.1489 18.8077C20.1452 18.999 20.1274 19.1898 20.0957 19.3785C19.6939 21.8412 18.353 23.0057 15.6619 23.2395C15.4886 23.2589 15.3144 23.268 15.1401 23.2666C14.8083 23.2541 14.6497 23.3709 14.6111 23.732C14.5578 24.211 14.2187 24.4718 13.7502 24.4833C12.7943 24.5056 11.8381 24.5056 10.8816 24.4833C10.3296 24.4729 9.97897 24.1212 9.94766 23.5609C9.91997 23.0743 9.91997 22.5865 9.94766 22.1C9.9821 21.5323 10.315 21.2046 10.8868 21.1921C11.826 21.1702 12.7651 21.1733 13.7043 21.1921C14.226 21.2025 14.5704 21.4791 14.6079 22.0133C14.6319 22.3577 14.7791 22.3974 15.0744 22.3671C15.8048 22.293 16.53 22.2367 17.2219 21.9716C18.4866 21.4874 19.4299 19.9284 19.263 18.6324C19.2264 18.3475 19.0344 18.4237 18.88 18.4154C17.9763 18.3705 17.9513 18.3486 17.9502 17.448C17.9502 14.8219 17.9502 12.1961 17.9502 9.57067C17.9502 8.75049 18.016 8.66701 18.8362 8.66909C19.1784 8.66909 19.2786 8.57622 19.2609 8.22561C19.0741 4.50032 16.026 1.56705 12.1327 1.38965C8.57755 1.21956 5.25401 4.02344 4.78235 7.59533C4.77191 7.6809 4.76043 7.76751 4.74895 7.85308C4.64982 8.60335 4.64982 8.61379 5.39071 8.64718C5.8248 8.66596 6.0168 8.86944 6.0168 9.29937C6.0168 12.1168 6.0168 14.9343 6.0168 17.7517C6.0168 18.2088 5.82271 18.431 5.35836 18.4154C4.78548 18.3945 4.21051 18.4581 3.64076 18.3538C2.41152 18.1347 1.6362 17.3541 1.53498 16.1134C1.46402 15.2504 1.52141 14.377 1.52141 13.5047L1.48176 13.5078ZM5.09226 13.5297V10.5036C5.09226 9.50807 5.09226 9.50807 4.07172 9.55607C3.09918 9.60198 2.43343 10.1561 2.41048 11.0775C2.36874 12.7106 2.37291 14.3457 2.41048 15.9819C2.42926 16.776 2.94996 17.2978 3.73363 17.4428C4.00494 17.4908 4.28877 17.4637 4.56843 17.496C4.97122 17.543 5.11627 17.4032 5.10583 16.9795C5.07766 15.8254 5.0954 14.6776 5.0954 13.5297H5.09226ZM18.8737 13.5297C18.8737 14.6943 18.8842 15.8598 18.8664 17.0244C18.8664 17.3813 18.9645 17.5461 19.3371 17.5023C19.5458 17.4793 19.7545 17.5023 19.9632 17.4846C20.9023 17.4094 21.5148 16.8585 21.543 15.9308C21.591 14.3322 21.59 12.7304 21.5597 11.1307C21.5472 10.3084 21.0473 9.78668 20.2251 9.6312C19.9371 9.57694 19.6355 9.60302 19.3433 9.56963C18.9802 9.52685 18.8623 9.66355 18.8685 10.0319C18.8894 11.1964 18.8769 12.362 18.8769 13.5276L18.8737 13.5297ZM12.2736 23.5702H12.691C13.8128 23.5702 13.8034 23.5702 13.7481 22.4568C13.7356 22.1866 13.6437 22.0926 13.3818 22.0968C12.6514 22.1073 11.9293 22.0968 11.203 22.0968C11.0496 22.0968 10.8597 22.077 10.8607 22.3055C10.8607 22.7 10.7198 23.1497 10.9254 23.4711C11.0809 23.7132 11.5056 23.5358 11.8082 23.5619C11.9637 23.5786 12.1254 23.5682 12.2767 23.5682L12.2736 23.5702Z" fill="#FA8B02" stroke="#FA8B02" stroke-width="0.2"/>
</g>
<defs>
<clipPath id="clip0_201_1928">
<rect width="24" height="24" fill="white" transform="translate(0 0.5)"/>
</clipPath>
</defs>
</svg>
