<svg width="24" height="25" viewBox="0 0 24 25" fill="none" xmlns="http://www.w3.org/2000/svg">
<g opacity="0.8" clip-path="url(#clip0_201_1915)">
<path d="M23.9996 19.0815L24.0996 19.0795C24.0798 18.0896 24.082 17.0995 24.0996 16.1092V16.1091C24.1031 15.9059 24.0639 15.7438 23.961 15.6171C23.8599 15.4925 23.709 15.417 23.5225 15.3598C22.1709 14.938 21.3598 13.8514 21.3491 12.5267C21.3385 11.1759 22.1496 10.0681 23.5215 9.64006C23.7309 9.57564 23.8839 9.4858 23.98 9.34649C24.0757 9.20792 24.1036 9.03669 24.0996 8.83538V8.83534C24.0864 8.18681 24.0891 7.5395 24.0918 6.89092C24.093 6.62209 24.0941 6.35303 24.0941 6.08358C24.0941 5.90016 24.0927 5.75253 24.0776 5.63783C24.0626 5.52316 24.0321 5.42338 23.9592 5.35001C23.8862 5.27657 23.7866 5.24532 23.6715 5.2298C23.5564 5.21429 23.408 5.21252 23.223 5.21252H12.0482C11.1345 5.21252 10.2212 5.21297 9.30826 5.21342C6.44021 5.21483 3.57502 5.21624 0.708486 5.20371V5.20371H0.708049C0.44023 5.20371 0.224771 5.24487 0.0824992 5.38209C-0.0615937 5.52107 -0.105363 5.73345 -0.0968742 6.00737L-0.0968613 6.00775C-0.0639181 6.95651 -0.0759773 7.91031 -0.0968975 8.86493L-0.0969215 8.86493V8.86712C-0.0969215 9.05701 -0.0685843 9.21992 0.0226136 9.35233C0.114594 9.48587 0.259469 9.57262 0.457982 9.63451L0.487746 9.53904L0.457738 9.63443C1.8476 10.0716 2.65687 11.1553 2.65687 12.5021C2.65687 13.849 1.84654 14.9346 0.45258 15.3675L0.451464 15.3679C0.255312 15.4313 0.111517 15.5174 0.0200536 15.6499C-0.0707908 15.7815 -0.0991245 15.9434 -0.099141 16.1338L-0.0991081 16.1356C-0.0814982 17.1075 -0.0749125 18.0795 -0.0990846 19.0489M23.9996 19.0815L24.0996 19.0793C24.1048 19.3158 24.0616 19.5046 23.9317 19.6307C23.8032 19.7556 23.6126 19.7961 23.3817 19.7961H23.3816C15.8032 19.7888 8.22483 19.7888 0.646461 19.7961H0.646364C0.402987 19.7961 0.203678 19.7548 0.0705093 19.6253C-0.0641377 19.4944 -0.107036 19.2975 -0.0990846 19.0489M23.9996 19.0815C24.0095 19.5353 23.8289 19.6961 23.3817 19.6961M23.9996 19.0815C23.9798 18.0901 23.982 17.0988 23.9996 16.1074L23.3817 19.6961M-0.0990846 19.0489C-0.0990807 19.0488 -0.0990767 19.0486 -0.0990728 19.0485L0.00087546 19.0517L-0.0990934 19.0492C-0.0990905 19.0491 -0.0990875 19.049 -0.0990846 19.0489ZM23.3817 19.6961C15.8032 19.6888 8.2248 19.6888 0.646364 19.6961H23.3817ZM1.23383 6.09326L1.23378 6.09326C1.0282 6.09163 0.929726 6.12458 0.87886 6.17605C0.828819 6.22668 0.798773 6.32199 0.807939 6.52171C0.807941 6.52174 0.807942 6.52177 0.807944 6.5218L0.708049 6.52639C0.73779 7.14875 0.732282 7.77441 0.708049 8.39897L1.23383 6.09326ZM1.23383 6.09326C3.10162 6.10717 4.97016 6.10528 6.83792 6.10338C7.48428 6.10273 8.13055 6.10207 8.77666 6.10207C9.38063 6.10207 9.9847 6.10273 10.5888 6.10338C12.462 6.10541 14.3358 6.10745 16.2094 6.08995M1.23383 6.09326L16.2094 6.08995M3.51045 12.044C3.33426 10.5882 2.53335 9.53367 1.17928 8.95587C1.0262 8.88979 0.9353 8.82315 0.881489 8.74398C0.828544 8.66609 0.802368 8.56248 0.807981 8.40267L20.5838 12.4867M3.51045 12.044L3.41117 12.056M3.51045 12.044L3.41117 12.056M3.51045 12.044C3.69223 13.5442 3.20013 14.9458 1.85376 15.6293C1.32018 15.9003 1.04675 16.2065 0.911306 16.5521C0.773954 16.9026 0.772593 17.3073 0.8131 17.7897C0.835787 17.9975 0.835741 18.2071 0.812961 18.4149L0.812628 18.418L0.812582 18.418C0.779091 18.6561 0.818306 18.7636 0.881445 18.8197C0.952641 18.883 1.08713 18.9143 1.32664 18.9132L1.32673 18.9132C4.76939 18.9005 8.21442 18.9009 11.6566 18.9014C13.0033 18.9015 14.3497 18.9017 15.6952 18.9011H15.6953C15.7811 18.9011 15.869 18.9058 15.9543 18.9105L15.966 18.9112C16.0481 18.9158 16.1277 18.9202 16.2054 18.921C16.3695 18.9228 16.5108 18.9078 16.6242 18.8527C16.6656 18.8327 16.687 18.8048 16.6999 18.767C16.7144 18.7245 16.7182 18.6682 16.7147 18.5954C16.7126 18.5517 16.7087 18.5115 16.7046 18.4688C16.7015 18.4356 16.6981 18.4008 16.6953 18.3616C16.6896 18.2804 16.6877 18.1917 16.7055 18.1081C16.7277 18.0016 16.7645 17.8927 16.8373 17.8114C16.9151 17.7248 17.0238 17.6805 17.163 17.6873C17.3027 17.6941 17.4084 17.7504 17.4784 17.8443C17.5449 17.9335 17.5716 18.0465 17.5795 18.1564M3.41117 12.056C3.23933 10.6362 2.46166 9.61174 1.13984 9.04777L3.41117 12.056ZM17.5795 18.1564C17.5914 18.3071 17.5936 18.4584 17.5862 18.6094L17.5862 18.6107C17.5783 18.7383 17.5972 18.8059 17.628 18.8427C17.6563 18.8765 17.7153 18.9082 17.8539 18.9077C19.5432 18.8989 21.2325 18.8989 22.9218 18.9077C23.058 18.9076 23.1191 18.8808 23.1499 18.8485C23.1815 18.8153 23.205 18.7518 23.2035 18.618C23.1935 17.9026 23.1924 17.1848 23.2035 16.4701C23.2033 16.3525 23.1773 16.2833 23.1366 16.2331C23.0932 16.1795 23.0236 16.1353 22.9114 16.0869C22.1264 15.7504 21.5168 15.2788 21.1044 14.6739C20.6918 14.0687 20.481 13.3364 20.4838 12.4864M17.5795 18.1564C17.5794 18.1563 17.5794 18.1562 17.5794 18.156L17.4797 18.1639L17.5795 18.1568C17.5795 18.1567 17.5795 18.1566 17.5795 18.1564ZM20.4838 12.4864L20.5838 12.4867M20.4838 12.4864C20.4838 12.4865 20.4838 12.4866 20.4838 12.4867H20.5838M20.4838 12.4864C20.4839 11.6478 20.697 10.9237 21.1076 10.3254C21.518 9.72735 22.1215 9.26094 22.8929 8.93052M20.5838 12.4867C20.5838 10.8443 21.4177 9.67122 22.9322 9.02243M22.8929 8.93052L22.9322 9.02243M22.8929 8.93052C22.8929 8.93051 22.8929 8.93051 22.8929 8.93051L22.9322 9.02243M22.8929 8.93052C23.0295 8.87196 23.1034 8.81188 23.1455 8.74445C23.1879 8.67666 23.2071 8.5872 23.2046 8.45071C23.1903 7.78932 23.1825 7.1262 23.2046 6.46248L23.2046 6.4622C23.211 6.28626 23.1797 6.20618 23.1362 6.16499C23.0906 6.12174 23.0041 6.0944 22.8299 6.09656L22.8298 6.09656C22.0545 6.10502 21.2766 6.10419 20.4996 6.10337C19.862 6.1027 19.2251 6.10202 18.5908 6.10648L18.5901 6.10648C18.4987 6.10648 18.4051 6.09761 18.3157 6.08849C18.3066 6.08756 18.2974 6.08662 18.2883 6.08569C18.2073 6.07736 18.1298 6.0694 18.0541 6.06662C17.8855 6.06044 17.7459 6.08126 17.6344 6.16719L17.6343 6.16725C17.5708 6.21613 17.5532 6.29692 17.5617 6.43782C17.5641 6.47868 17.5678 6.51541 17.5717 6.55427C17.5749 6.58556 17.5782 6.61824 17.5811 6.65558C17.5869 6.73125 17.5895 6.8133 17.5761 6.89228M22.9322 9.02243L17.4775 6.87558M17.5761 6.89228L17.4775 6.87558M17.5761 6.89228C17.5761 6.89219 17.5762 6.8921 17.5762 6.89202L17.4775 6.87558M17.5761 6.89228C17.5576 7.00357 17.5202 7.11307 17.4451 7.19442C17.3662 7.27989 17.2564 7.32278 17.1195 7.31809M17.4775 6.87558C17.4434 7.08046 17.3476 7.22586 17.1228 7.21815M17.1195 7.31809L17.1228 7.21815M17.1195 7.31809C17.1195 7.31809 17.1194 7.31809 17.1194 7.31809L17.1228 7.21815M17.1195 7.31809C16.9972 7.31397 16.8979 7.269 16.8269 7.1895C16.7587 7.11323 16.7241 7.01373 16.7101 6.91105C16.6888 6.79356 16.6841 6.67364 16.6962 6.55483L16.6967 6.55011L16.6968 6.55012C16.7305 6.32517 16.6909 6.22656 16.6316 6.17574C16.563 6.1169 16.434 6.08831 16.2094 6.08995M17.1228 7.21815L16.2086 5.98996L16.2095 6.08995C16.2095 6.08995 16.2095 6.08995 16.2094 6.08995M0.713557 18.404C0.644161 18.8975 0.849043 19.0154 1.3271 19.0132L1.80846 15.5401C0.709151 16.0986 0.632044 16.83 0.713557 17.7993C0.735588 18.0003 0.735588 18.2031 0.713557 18.404Z" fill="#FA8B02" stroke="#FA8B02" stroke-width="0.2"/>
<path d="M6.47165 16.1898L6.48609 16.1928L6.50079 16.1916C6.74128 16.1709 6.88284 16.0241 6.99298 15.9099C7.00872 15.8935 7.02382 15.8779 7.03847 15.8633L7.0388 15.863C8.17993 14.7212 9.32143 13.5793 10.4633 12.4374C11.3334 11.5695 12.204 10.703 13.0748 9.83799L13.0748 9.83798C13.1598 9.75363 13.2498 9.64806 13.284 9.52644C13.3018 9.46311 13.3047 9.39501 13.284 9.32508C13.2635 9.25578 13.2218 9.19105 13.1604 9.13069C13.0356 9.00786 12.9011 8.96966 12.7667 9.00302C12.6442 9.03343 12.5374 9.1201 12.4493 9.20692L12.3325 9.31616L12.3324 9.31612L12.3301 9.31847C10.3844 11.2619 8.43949 13.2068 6.4953 15.1532C6.36135 15.2644 6.24457 15.3948 6.14876 15.5401L6.14835 15.5399L6.14377 15.5486C6.05823 15.711 6.04405 15.8625 6.12206 15.9855C6.19517 16.1008 6.33144 16.1604 6.47165 16.1898Z" fill="#FA8B02" stroke="#FA8B02" stroke-width="0.2"/>
<path d="M9.10668 10.2981L9.10668 10.2975C9.10776 10.078 9.06545 9.8605 8.98217 9.65744C8.8989 9.45438 8.7763 9.26978 8.62144 9.11426C8.46657 8.95874 8.28249 8.83537 8.07978 8.75124C7.87743 8.66726 7.6605 8.62403 7.44142 8.62403C7.22259 8.61922 7.00495 8.65763 6.80097 8.73706C6.59663 8.81663 6.41003 8.93581 6.2519 9.08773C6.09377 9.23966 5.96722 9.42134 5.87953 9.62233C5.79184 9.82332 5.74474 10.0397 5.74094 10.2589H5.74094L5.74093 10.2595C5.73839 10.4805 5.77941 10.6998 5.86164 10.905C5.94387 11.1101 6.06569 11.2971 6.22017 11.4551C6.37464 11.6132 6.55874 11.7393 6.76194 11.8262C6.96515 11.9131 7.18348 11.9592 7.40448 11.9617C7.62548 11.9642 7.84481 11.9232 8.04996 11.841C8.25511 11.7588 8.44205 11.6369 8.60011 11.4825C8.75817 11.328 8.88426 11.1439 8.97118 10.9407C9.0581 10.7375 9.10414 10.5191 9.10668 10.2981ZM7.71231 11.0213C7.61618 11.0588 7.51361 11.077 7.41043 11.0749C7.20207 11.0707 7.00394 10.9838 6.85963 10.8334C6.71531 10.6831 6.63664 10.4815 6.64092 10.2732C6.64519 10.0648 6.73207 9.86667 6.88243 9.72236C7.03279 9.57805 7.23432 9.49937 7.44268 9.50365C7.54585 9.50577 7.6476 9.52819 7.74211 9.56962C7.83661 9.61106 7.92203 9.67071 7.99349 9.74516C8.06495 9.81961 8.12104 9.90741 8.15856 10.0035C8.19609 10.0997 8.21431 10.2022 8.2122 10.3054C8.21008 10.4086 8.18766 10.5103 8.14622 10.6048C8.10479 10.6993 8.04514 10.7848 7.97069 10.8562C7.89624 10.9277 7.80844 10.9838 7.71231 11.0213Z" fill="#FA8B02" stroke="#FA8B02" stroke-width="0.2"/>
<path d="M13.4754 14.6811L13.4754 14.6807C13.4697 14.2388 13.2916 13.8167 12.9791 13.5042C12.6666 13.1918 12.2445 13.0137 11.8027 13.0079V13.0079L11.8018 13.0079C11.5777 13.0069 11.3557 13.051 11.149 13.1378C10.9423 13.2245 10.7553 13.3521 10.599 13.5128C10.4428 13.6735 10.3206 13.8641 10.2398 14.0731C10.1591 14.2817 10.1212 14.5044 10.1284 14.7279C10.1296 14.9467 10.1745 15.1631 10.2604 15.3643C10.3466 15.5659 10.4722 15.7482 10.63 15.9005C10.7878 16.0528 10.9744 16.172 11.179 16.2509C11.3831 16.3298 11.6009 16.367 11.8196 16.3605C12.0384 16.3594 12.2548 16.3152 12.4565 16.2303C12.6586 16.1453 12.8419 16.0212 12.9959 15.8652C13.1499 15.7091 13.2715 15.5242 13.3538 15.321C13.4361 15.1178 13.4774 14.9003 13.4754 14.6811ZM12.5705 14.668L12.5704 14.668L12.5705 14.6708C12.575 14.7753 12.5584 14.8796 12.5219 14.9775C12.4853 15.0754 12.4294 15.165 12.3575 15.241C12.2857 15.3169 12.1993 15.3777 12.1036 15.4196C12.0082 15.4614 11.9055 15.4837 11.8014 15.4852C11.5972 15.4822 11.4018 15.4019 11.2546 15.2604C11.1072 15.1189 11.019 14.9267 11.0079 14.7226C11.0041 14.6179 11.0214 14.5134 11.0588 14.4154C11.0963 14.3173 11.1532 14.2276 11.2262 14.152C11.2991 14.0763 11.3865 14.0161 11.4833 13.975C11.58 13.934 11.6841 13.9128 11.7892 13.9129L11.791 13.9129C11.8918 13.9111 11.992 13.9292 12.0858 13.9662C12.1796 14.0032 12.2652 14.0584 12.3376 14.1285C12.41 14.1987 12.4679 14.2825 12.5078 14.375C12.5478 14.4676 12.5691 14.5671 12.5705 14.668Z" fill="#FA8B02" stroke="#FA8B02" stroke-width="0.2"/>
<path d="M17.5872 11.9579H17.5871V11.959V11.96V11.9611V11.9622V11.9632V11.9643V11.9654V11.9665V11.9675V11.9686V11.9697V11.9707V11.9718V11.9729V11.974V11.975V11.9761V11.9772V11.9782V11.9793V11.9804V11.9815V11.9825V11.9836V11.9847V11.9857V11.9868V11.9879V11.989V11.99V11.9911V11.9922V11.9932V11.9943V11.9954V11.9965V11.9975V11.9986V11.9997V12.0007V12.0018V12.0029V12.004V12.005V12.0061V12.0072V12.0082V12.0093V12.0104V12.0115V12.0125V12.0136V12.0147V12.0157V12.0168V12.0179V12.019V12.02V12.0211V12.0222V12.0232V12.0243V12.0254V12.0265V12.0275V12.0286V12.0297V12.0307V12.0318V12.0329V12.034V12.035V12.0361V12.0372V12.0382V12.0393V12.0404V12.0415V12.0425V12.0436V12.0447V12.0457V12.0468V12.0479V12.049V12.05V12.0511V12.0522V12.0532V12.0543V12.0554V12.0565V12.0575V12.0586V12.0597V12.0607V12.0618V12.0629V12.064V12.065V12.0661V12.0672V12.0683V12.0693V12.0704V12.0715V12.0725V12.0736V12.0747V12.0758V12.0768V12.0779V12.079V12.08V12.0811V12.0822V12.0833V12.0843V12.0854V12.0865V12.0875V12.0886V12.0897V12.0908V12.0918V12.0929V12.094V12.0951V12.0961V12.0972V12.0983V12.0993V12.1004V12.1015V12.1026V12.1036V12.1047V12.1058V12.1068V12.1079V12.109V12.1101V12.1111V12.1122V12.1133V12.1144V12.1154V12.1165V12.1176V12.1186V12.1197V12.1208V12.1219V12.1229V12.124V12.1251V12.1262V12.1272V12.1283V12.1294V12.1304V12.1315V12.1326V12.1337V12.1347V12.1358V12.1369V12.138V12.139V12.1401V12.1412V12.1422V12.1433V12.1444V12.1455V12.1465V12.1476V12.1487V12.1498V12.1508V12.1519V12.153V12.154V12.1551V12.1562V12.1573V12.1583V12.1594V12.1605V12.1616V12.1626V12.1637V12.1648V12.1659V12.1669V12.168V12.1691V12.1701V12.1712V12.1723V12.1734V12.1744V12.1755V12.1766V12.1777V12.1787V12.1798V12.1809V12.182V12.183V12.1841V12.1852V12.1862V12.1873V12.1884V12.1895V12.1905V12.1916V12.1927V12.1938V12.1948V12.1959V12.197V12.1981V12.1991V12.2002V12.2013V12.2024V12.2034V12.2045V12.2056V12.2066V12.2077V12.2088V12.2099V12.2109V12.212V12.2131V12.2142V12.2152V12.2163V12.2174V12.2185V12.2195V12.2206V12.2217V12.2228V12.2238V12.2249V12.226V12.2271V12.2281V12.2292V12.2303V12.2314V12.2324V12.2335V12.2346V12.2357V12.2367V12.2378V12.2389V12.24V12.241V12.2421V12.2432V12.2443V12.2453V12.2464V12.2475V12.2486V12.2496V12.2507V12.2518V12.2529V12.2539V12.255V12.2561V12.2572V12.2582V12.2593V12.2604V12.2615V12.2625V12.2636V12.2647V12.2658V12.2668V12.2679V12.269V12.2701V12.2711V12.2722V12.2733V12.2744V12.2754V12.2765V12.2776V12.2787V12.2797V12.2808V12.2819V12.283V12.284V12.2851V12.2862V12.2873V12.2883V12.2894V12.2905V12.2916V12.2927V12.2937V12.2948V12.2959V12.297V12.298V12.2991V12.3002V12.3013V12.3023V12.3034V12.3045V12.3056V12.3066V12.3077V12.3088V12.3099V12.311V12.312V12.3131V12.3142V12.3153V12.3163V12.3174V12.3185V12.3196V12.3206V12.3217V12.3228V12.3239V12.325V12.326V12.3271V12.3282V12.3293V12.3303V12.3314V12.3325V12.3336V12.3346V12.3357V12.3368V12.3379V12.339V12.34V12.3411V12.3422V12.3433V12.3443V12.3454V12.3465V12.3476V12.3487V12.3497V12.3508V12.3519V12.353V12.354V12.3551V12.3562V12.3573V12.3584V12.3594V12.3605V12.3616V12.3627V12.3638V12.3648V12.3659V12.367V12.3681V12.3691V12.3702V12.3713V12.3724V12.3735V12.3745V12.3756V12.3767V12.3778V12.3789V12.3799V12.381V12.3821V12.3832V12.3843V12.3853V12.3864V12.3875V12.3886V12.3896V12.3907V12.3918V12.3929V12.394V12.395V12.3961V12.3972V12.3983V12.3994V12.4004V12.4015V12.4026V12.4037V12.4048V12.4058V12.4069V12.408V12.4091V12.4102V12.4112V12.4123V12.4134V12.4145V12.4156V12.4166V12.4177V12.4188V12.4199V12.421V12.422V12.4231V12.4242V12.4253V12.4264V12.4275V12.4285V12.4296V12.4307V12.4318V12.4329V12.4339V12.435V12.4361V12.4372V12.4383V12.4393V12.4404V12.4415V12.4426V12.4437V12.4447V12.4458V12.4469V12.448V12.4491V12.4502V12.4512V12.4523V12.4534V12.4545V12.4556V12.4566V12.4577V12.4588V12.4599V12.461V12.4621V12.4631V12.4642V12.4653V12.4664V12.4675V12.4686V12.4696V12.4707V12.4718V12.4729V12.474V12.475V12.4761V12.4772V12.4783V12.4794V12.4805V12.4815V12.4826V12.4837V12.4848V12.4859V12.487V12.488V12.4891V12.4902V12.4913V12.4924V12.4935V12.4945V12.4956V12.4967V12.4978V12.4989V12.5V12.501V12.5021V12.5032V12.5043V12.5054V12.5065V12.5076V12.5086V12.585L17.5756 12.5882C17.5761 12.6267 17.577 12.6658 17.5778 12.7054C17.5808 12.8422 17.5839 12.984 17.5748 13.1211C17.567 13.2391 17.525 13.3521 17.4437 13.4334C17.3603 13.5168 17.2439 13.5582 17.108 13.5444C16.975 13.5309 16.8708 13.4739 16.8011 13.3819C16.7335 13.2926 16.7056 13.1798 16.7031 13.065M17.5872 11.9579L16.7031 13.0649C16.7031 13.0649 16.7031 13.065 16.7031 13.065M17.5872 11.9579L17.5871 11.955M17.5872 11.9579L17.5871 11.955M16.7031 13.065C16.6943 12.6979 16.6954 12.331 16.7031 11.9656M16.7031 13.065L16.7031 11.9667C16.7031 11.9663 16.7031 11.966 16.7031 11.9656M16.7031 11.9656C16.7032 11.8438 16.7289 11.7174 16.7984 11.6182M16.7031 11.9656L16.7984 11.6182M17.5871 11.955C17.5834 11.8304 17.555 11.7043 17.4826 11.6073C17.4065 11.5053 17.2901 11.4468 17.1392 11.4481C16.9866 11.4495 16.8716 11.5138 16.7984 11.6182M17.5871 11.955L16.7984 11.6182" fill="#FA8B02" stroke="#FA8B02" stroke-width="0.2"/>
<path d="M17.0997 10.4221L17.0992 10.4221C16.9576 10.4146 16.8522 10.3567 16.7839 10.2615C16.7193 10.1713 16.6956 10.0582 16.6896 9.95106C16.6838 9.84762 16.6862 9.75267 16.69 9.66223C16.6909 9.63914 16.692 9.61654 16.693 9.59422C16.696 9.528 16.699 9.46425 16.6994 9.39772C16.6994 9.3345 16.6983 9.26955 16.6972 9.2037C16.695 9.06816 16.6927 8.9288 16.6995 8.79274C16.7051 8.67923 16.7368 8.56619 16.8087 8.47946C16.8832 8.38955 16.9924 8.33819 17.1293 8.33751C17.2649 8.33683 17.3764 8.38496 17.4536 8.47283C17.5288 8.55837 17.5629 8.67175 17.5668 8.78868M17.0997 10.4221L17.4669 8.79219M17.0997 10.4221C17.2516 10.4294 17.3742 10.3799 17.4565 10.283C17.5354 10.19 17.5666 10.0661 17.5669 9.94176M17.0997 10.4221L17.4669 9.93997M17.5668 8.78868C17.5668 8.78876 17.5668 8.78884 17.5668 8.78892L17.4669 8.79219M17.5668 8.78868C17.5668 8.78861 17.5668 8.78853 17.5668 8.78845L17.4669 8.79219M17.5668 8.78868C17.5812 9.17295 17.5801 9.55806 17.5669 9.94176M17.4669 8.79219C17.4812 9.17442 17.4801 9.55775 17.4669 9.93997M17.5669 9.94176C17.5669 9.94117 17.5669 9.94057 17.5669 9.93997H17.4669M17.5669 9.94176C17.5669 9.94232 17.5668 9.94287 17.5668 9.94343L17.4669 9.93997" fill="#FA8B02" stroke="#FA8B02" stroke-width="0.2"/>
<path d="M17.5785 16.2153L17.5785 16.2153L17.5786 16.2135C17.5846 16.0861 17.5826 15.9575 17.5806 15.8336C17.5797 15.7739 17.5787 15.7152 17.5787 15.6583C17.579 15.6068 17.5797 15.5552 17.5805 15.5036C17.5826 15.3564 17.5847 15.2084 17.5764 15.0587C17.5703 14.9501 17.5452 14.8375 17.4787 14.7486C17.4093 14.6559 17.3043 14.601 17.1659 14.5934C17.1068 14.5863 17.0469 14.592 16.9902 14.6104C16.9322 14.6291 16.8792 14.6605 16.8348 14.7024C16.7905 14.7442 16.756 14.7954 16.7339 14.8522C16.7125 14.9072 16.7032 14.9662 16.7067 15.0251C16.6936 15.4259 16.6936 15.8271 16.7068 16.2286L16.7068 16.2286L16.7069 16.2308C16.7133 16.3466 16.7488 16.459 16.8248 16.5432C16.903 16.6298 17.0147 16.6761 17.1503 16.6733C17.287 16.6706 17.395 16.6181 17.4687 16.5278C17.5395 16.4408 17.5711 16.3282 17.5785 16.2153Z" fill="#FA8B02" stroke="#FA8B02" stroke-width="0.2"/>
</g>
<defs>
<clipPath id="clip0_201_1915">
<rect width="24" height="24" fill="white" transform="translate(0 0.5)"/>
</clipPath>
</defs>
</svg>
